<?xml version="1.0" encoding="UTF-8"?>
<svg id="Layer_1" data-name="Layer 1" xmlns="http://www.w3.org/2000/svg" viewBox="0 0 480 415.46">
  <defs>
    <style>
      .cls-1 {
        fill: #111;
      }
    </style>
  </defs>
  <g>
    <polygon class="cls-1" points="182.31 .02 225.55 94.02 301.19 .01 279.23 127.75 350.44 127.75 182.27 345.78 209.27 188.73 149.87 188.73 182.31 .02"/>
    <circle class="cls-1" cx="237.78" cy="21.36" r="21.36"/>
  </g>
  <g>
    <path class="cls-1" d="m0,414.69v-52.28h14.39c3.53,0,6.58.39,9.17,1.16,2.58.77,4.59,2.16,6.04,4.16,1.44,2,2.16,4.83,2.16,8.49,0,2.15-.17,4.07-.52,5.75-.35,1.68-.98,3.13-1.9,4.36-.93,1.23-2.25,2.25-3.97,3.07l7.16,25.3h-11.94l-5.75-23.43h-3.29v23.43H0Zm11.55-30.08h3.23c1.63,0,2.9-.29,3.81-.87.9-.58,1.54-1.42,1.9-2.52.37-1.1.55-2.42.55-3.97,0-2.24-.41-3.98-1.23-5.23-.82-1.25-2.32-1.87-4.52-1.87h-3.74v14.46Z"/>
    <path class="cls-1" d="m36.21,414.69l9.88-52.28h13.17l9.75,52.28h-10.65l-1.74-11.04h-7.68l-1.81,11.04h-10.91Zm13.75-17.94h5.55l-2.78-20.4-2.78,20.4Z"/>
    <path class="cls-1" d="m78.04,414.69v-21.37l-9.94-30.92h10.91l4.97,16.52,4.45-16.52h10.46l-9.75,30.92v21.37h-11.1Z"/>
    <path class="cls-1" d="m103.28,414.69v-52.28h11.55v21.37l8.78-21.37h11.3l-9.68,23.62,10.13,28.66h-11.75l-7.55-23.11-1.23,2.07v21.04h-11.55Z"/>
    <path class="cls-1" d="m153.37,415.46c-3.92,0-7.01-.69-9.29-2.07-2.28-1.38-3.92-3.36-4.91-5.94-.99-2.58-1.48-5.66-1.48-9.23v-19.43c0-3.61.49-6.69,1.48-9.23.99-2.54,2.62-4.49,4.91-5.84,2.28-1.36,5.38-2.03,9.29-2.03s7.09.68,9.39,2.03c2.3,1.36,3.95,3.3,4.94,5.84.99,2.54,1.48,5.62,1.48,9.23v19.43c0,3.57-.5,6.65-1.48,9.23-.99,2.58-2.64,4.56-4.94,5.94-2.3,1.38-5.43,2.07-9.39,2.07Zm0-8.2c1.2,0,2.09-.3,2.65-.9.56-.6.93-1.38,1.1-2.32.17-.95.26-1.91.26-2.9v-25.17c0-1.03-.09-2.01-.26-2.94-.17-.92-.54-1.69-1.1-2.29-.56-.6-1.44-.9-2.65-.9-1.12,0-1.96.3-2.52.9-.56.6-.93,1.37-1.1,2.29-.17.93-.26,1.9-.26,2.94v25.17c0,.99.07,1.96.23,2.9.15.95.49,1.72,1.03,2.32.54.6,1.41.9,2.61.9Z"/>
    <path class="cls-1" d="m176.22,414.69v-52.28h8.13l10.72,25.17v-25.17h9.55v52.28h-7.81l-10.72-27.11v27.11h-9.88Z"/>
    <path class="cls-1" d="m242.83,415.46c-3.27,0-6-.58-8.2-1.74-2.2-1.16-3.85-2.96-4.97-5.39-1.12-2.43-1.74-5.58-1.87-9.46l9.88-1.48c.04,2.24.25,4.05.61,5.42.37,1.38.88,2.37,1.55,2.97.67.6,1.47.9,2.42.9,1.2,0,1.99-.41,2.36-1.23.37-.82.55-1.68.55-2.58,0-2.15-.52-3.97-1.55-5.45-1.03-1.48-2.43-2.98-4.2-4.49l-4.52-3.94c-1.98-1.68-3.65-3.58-5-5.71s-2.03-4.77-2.03-7.91c0-4.43,1.31-7.82,3.94-10.17,2.62-2.34,6.2-3.52,10.71-3.52,2.8,0,5.05.47,6.75,1.42,1.7.95,2.99,2.18,3.87,3.71.88,1.53,1.48,3.14,1.81,4.84.32,1.7.51,3.32.55,4.87l-9.94,1.23c-.04-1.55-.14-2.89-.29-4.03-.15-1.14-.46-2.02-.94-2.65-.47-.62-1.21-.94-2.2-.94-1.08,0-1.86.45-2.36,1.36-.5.9-.74,1.81-.74,2.71,0,1.94.46,3.52,1.39,4.74.93,1.23,2.14,2.51,3.65,3.84l4.33,3.81c2.28,1.94,4.21,4.13,5.78,6.58,1.57,2.45,2.36,5.49,2.36,9.1,0,2.45-.56,4.68-1.68,6.68-1.12,2-2.7,3.58-4.74,4.74-2.04,1.16-4.47,1.74-7.26,1.74Z"/>
    <path class="cls-1" d="m266.84,414.69v-43.7h-7.88v-8.58h27.3v8.58h-7.81v43.7h-11.62Z"/>
    <path class="cls-1" d="m305.96,415.46c-4,0-7.13-.66-9.39-1.97-2.26-1.31-3.84-3.23-4.74-5.75s-1.36-5.6-1.36-9.26v-36.08h11.43v37.83c0,1.08.09,2.15.26,3.23.17,1.08.55,1.96,1.13,2.65.58.69,1.47,1.03,2.68,1.03s2.15-.34,2.71-1.03c.56-.69.91-1.57,1.07-2.65.15-1.08.23-2.15.23-3.23v-37.83h11.49v36.08c0,3.66-.46,6.75-1.39,9.26-.93,2.52-2.51,4.43-4.74,5.75-2.24,1.31-5.36,1.97-9.36,1.97Z"/>
    <path class="cls-1" d="m328.81,414.69v-52.28h13.23c4.56,0,8.11.57,10.65,1.71,2.54,1.14,4.32,2.93,5.36,5.36,1.03,2.43,1.55,5.58,1.55,9.46v18.98c0,3.92-.52,7.11-1.55,9.59-1.03,2.48-2.81,4.29-5.33,5.45-2.52,1.16-6.04,1.74-10.55,1.74h-13.36Zm11.55-8h1.81c1.76,0,3.03-.26,3.81-.77.77-.52,1.26-1.29,1.45-2.32.19-1.03.29-2.32.29-3.87v-22.79c0-1.55-.12-2.8-.36-3.74-.24-.95-.74-1.63-1.52-2.07-.77-.43-2.02-.65-3.74-.65h-1.74v36.21Z"/>
    <path class="cls-1" d="m366.7,414.69v-52.28h11.55v52.28h-11.55Z"/>
    <path class="cls-1" d="m401.04,415.46c-3.92,0-7.01-.69-9.29-2.07-2.28-1.38-3.92-3.36-4.91-5.94-.99-2.58-1.48-5.66-1.48-9.23v-19.43c0-3.61.49-6.69,1.48-9.23.99-2.54,2.62-4.49,4.91-5.84,2.28-1.36,5.38-2.03,9.29-2.03s7.09.68,9.39,2.03c2.3,1.36,3.95,3.3,4.94,5.84.99,2.54,1.48,5.62,1.48,9.23v19.43c0,3.57-.5,6.65-1.48,9.23-.99,2.58-2.64,4.56-4.94,5.94-2.3,1.38-5.43,2.07-9.39,2.07Zm0-8.2c1.2,0,2.09-.3,2.65-.9.56-.6.93-1.38,1.1-2.32.17-.95.26-1.91.26-2.9v-25.17c0-1.03-.09-2.01-.26-2.94-.17-.92-.54-1.69-1.1-2.29-.56-.6-1.44-.9-2.65-.9-1.12,0-1.96.3-2.52.9-.56.6-.93,1.37-1.1,2.29-.17.93-.26,1.9-.26,2.94v25.17c0,.99.07,1.96.23,2.9.15.95.49,1.72,1.03,2.32.54.6,1.41.9,2.61.9Z"/>
    <path class="cls-1" d="m437.77,415.46c-3.27,0-6-.58-8.2-1.74-2.2-1.16-3.85-2.96-4.97-5.39-1.12-2.43-1.74-5.58-1.87-9.46l9.88-1.48c.04,2.24.25,4.05.61,5.42.37,1.38.88,2.37,1.55,2.97.67.6,1.47.9,2.42.9,1.2,0,1.99-.41,2.36-1.23.37-.82.55-1.68.55-2.58,0-2.15-.52-3.97-1.55-5.45-1.03-1.48-2.43-2.98-4.2-4.49l-4.52-3.94c-1.98-1.68-3.65-3.58-5-5.71s-2.03-4.77-2.03-7.91c0-4.43,1.31-7.82,3.94-10.17,2.62-2.34,6.2-3.52,10.71-3.52,2.8,0,5.05.47,6.75,1.42,1.7.95,2.99,2.18,3.87,3.71.88,1.53,1.48,3.14,1.81,4.84.32,1.7.51,3.32.55,4.87l-9.94,1.23c-.04-1.55-.14-2.89-.29-4.03-.15-1.14-.46-2.02-.94-2.65-.47-.62-1.21-.94-2.2-.94-1.08,0-1.86.45-2.36,1.36-.5.9-.74,1.81-.74,2.71,0,1.94.46,3.52,1.39,4.74.93,1.23,2.14,2.51,3.65,3.84l4.33,3.81c2.28,1.94,4.21,4.13,5.78,6.58,1.57,2.45,2.36,5.49,2.36,9.1,0,2.45-.56,4.68-1.68,6.68-1.12,2-2.7,3.58-4.74,4.74-2.04,1.16-4.47,1.74-7.26,1.74Z"/>
  </g>
  <path class="cls-1" d="m461.4,378.38v-11.5h-2.75v-2.72h8.55v2.72h-2.64v11.5h-3.16Zm6.9,0v-14.23h3.45l2.38,8.69,2.43-8.69h3.45v14.23h-2.69v-8.08l-2.4,8.08h-1.45l-2.49-8.14v8.14h-2.67Z"/>
</svg>